HIERARCHY
ROOT Hips
{
	OFFSET 0.000000 103.266502 0.000000
	CHANNELS 6 Xposition Yposition Zposition Xrotation Yrotation Zrotation 
	JOINT Spine
	{
		OFFSET -0.002400 12.777504 0.315300
		CHANNELS 3 Xrotation Yrotation Zrotation
		JOINT Spine1
		{
			OFFSET -0.002067 5.816869 0.032633
			CHANNELS 3 Xrotation Yrotation Zrotation
			JOINT Spine1_split
			{
				OFFSET -0.002067 5.816869 0.032633
				CHANNELS 3 Xrotation Yrotation Zrotation
				JOINT Spine2
				{
					OFFSET -0.002067 5.816869 0.032633
					CHANNELS 3 Xrotation Yrotation Zrotation
					JOINT Neck
					{
						OFFSET -0.003700 21.199493 -0.826900
						CHANNELS 3 Xrotation Yrotation Zrotation
						JOINT Head
						{
							OFFSET 0.000000 20.442200 4.834800
							CHANNELS 3 Xrotation Yrotation Zrotation
							JOINT HeadTop_End
							{
								OFFSET 0.000000 34.668396 4.968400
								CHANNELS 3 Xrotation Yrotation Zrotation
								End Site
								{
									OFFSET 0.000000 0.000000 0.000000
								}
							}
						}
					}
					JOINT LeftShoulder
					{
						OFFSET 3.288150 8.794197 -1.372250
						CHANNELS 3 Xrotation Yrotation Zrotation
						JOINT LeftShoulder_split
						{
							OFFSET 3.288150 8.794197 -1.372250
							CHANNELS 3 Xrotation Yrotation Zrotation
							JOINT LeftArm
							{
								OFFSET 11.953299 -2.279007 -0.146200
								CHANNELS 3 Xrotation Yrotation Zrotation
								JOINT LeftForeArm
								{
									OFFSET 18.448900 0.000000 0.000000
									CHANNELS 3 Xrotation Yrotation Zrotation
									JOINT LeftHand
									{
										OFFSET 29.527798 0.000000 0.000000
										CHANNELS 3 Xrotation Yrotation Zrotation
										JOINT LeftHandThumb1
										{
											OFFSET 10.739754 -2.369614 9.225399
											CHANNELS 3 Xrotation Yrotation Zrotation
											JOINT LeftHandThumb2
											{
												OFFSET 4.926170 -2.844131 2.844125
												CHANNELS 3 Xrotation Yrotation Zrotation
												JOINT LeftHandThumb3
												{
													OFFSET 4.614891 -2.664413 2.664409
													CHANNELS 3 Xrotation Yrotation Zrotation
													JOINT LeftHandThumb4
													{
														OFFSET 4.432465 -2.559082 2.559083
														CHANNELS 3 Xrotation Yrotation Zrotation
														End Site
														{
															OFFSET 0.000000 0.000000 0.000000
														}
													}
												}
											}
										}
										JOINT LeftHandIndex1
										{
											OFFSET 26.467674 0.187653 6.405298
											CHANNELS 3 Xrotation Yrotation Zrotation
											JOINT LeftHandIndex2
											{
												OFFSET 8.792900 0.000000 0.000000
												CHANNELS 3 Xrotation Yrotation Zrotation
												JOINT LeftHandIndex3
												{
													OFFSET 10.075203 0.000000 0.000000
													CHANNELS 3 Xrotation Yrotation Zrotation
													End Site
													{
														OFFSET 0.000000 0.000000 0.000000
													}
												}
											}
										}
										JOINT LeftHandMiddle1
										{
											OFFSET 25.764404 0.000000 0.000000
											CHANNELS 3 Xrotation Yrotation Zrotation
											JOINT LeftHandMiddle2
											{
												OFFSET 9.393974 0.000000 0.000000
												CHANNELS 3 Xrotation Yrotation Zrotation
												JOINT LeftHandMiddle3
												{
													OFFSET 10.771950 0.000000 0.000000
													CHANNELS 3 Xrotation Yrotation Zrotation
													End Site
													{
														OFFSET 0.000000 0.000000 0.000000
													}
												}
											}
										}
										JOINT LeftHandRing1
										{
											OFFSET 24.660927 0.144547 -6.225808
											CHANNELS 3 Xrotation Yrotation Zrotation
											JOINT LeftHandRing2
											{
												OFFSET 9.393799 0.000000 0.000000
												CHANNELS 3 Xrotation Yrotation Zrotation
												JOINT LeftHandRing3
												{
													OFFSET 9.928497 0.000000 0.000000
													CHANNELS 3 Xrotation Yrotation Zrotation
													End Site
													{
														OFFSET 0.000000 0.000000 0.000000
													}
												}
											}
										}
										JOINT LeftHandPinky1
										{
											OFFSET 23.655350 0.125290 -12.815412
											CHANNELS 3 Xrotation Yrotation Zrotation
											JOINT LeftHandPinky2
											{
												OFFSET 8.425102 0.000000 0.000000
												CHANNELS 3 Xrotation Yrotation Zrotation
												JOINT LeftHandPinky3
												{
													OFFSET 8.147003 0.000000 0.000000
													CHANNELS 3 Xrotation Yrotation Zrotation
													End Site
													{
														OFFSET 0.000000 0.000000 0.000000
													}
												}
											}
										}
									}
								}
							}
						}
					}
					JOINT RightShoulder
					{
						OFFSET -3.249400 8.794197 -1.372250
						CHANNELS 3 Xrotation Yrotation Zrotation
						JOINT RightShoulder_split
						{
							OFFSET -3.249400 8.794197 -1.372250
							CHANNELS 3 Xrotation Yrotation Zrotation
							JOINT RightArm
							{
								OFFSET -11.953299 -2.279007 -0.146200
								CHANNELS 3 Xrotation Yrotation Zrotation
								JOINT RightForeArm
								{
									OFFSET -18.448900 0.000000 0.000000
									CHANNELS 3 Xrotation Yrotation Zrotation
									JOINT RightHand
									{
										OFFSET -29.527802 0.000000 0.000000
										CHANNELS 3 Xrotation Yrotation Zrotation
										JOINT RightHandThumb1
										{
											OFFSET -10.739754 -2.369614 9.225399
											CHANNELS 3 Xrotation Yrotation Zrotation
											JOINT RightHandThumb2
											{
												OFFSET -4.926170 -2.844131 2.844125
												CHANNELS 3 Xrotation Yrotation Zrotation
												JOINT RightHandThumb3
												{
													OFFSET -4.614891 -2.664413 2.664409
													CHANNELS 3 Xrotation Yrotation Zrotation
													JOINT RightHandThumb4
													{
														OFFSET -4.432465 -2.559082 2.559083
														CHANNELS 3 Xrotation Yrotation Zrotation
														End Site
														{
															OFFSET 0.000000 0.000000 0.000000
														}
													}
												}
											}
										}
										JOINT RightHandIndex1
										{
											OFFSET -26.467674 0.187653 6.405298
											CHANNELS 3 Xrotation Yrotation Zrotation
											JOINT RightHandIndex2
											{
												OFFSET -8.792900 0.000000 0.000000
												CHANNELS 3 Xrotation Yrotation Zrotation
												JOINT RightHandIndex3
												{
													OFFSET -10.075203 0.000000 0.000000
													CHANNELS 3 Xrotation Yrotation Zrotation
													End Site
													{
														OFFSET 0.000000 0.000000 0.000000
													}
												}
											}
										}
										JOINT RightHandMiddle1
										{
											OFFSET -25.764404 0.000000 0.000000
											CHANNELS 3 Xrotation Yrotation Zrotation
											JOINT RightHandMiddle2
											{
												OFFSET -9.393974 0.000000 0.000000
												CHANNELS 3 Xrotation Yrotation Zrotation
												JOINT RightHandMiddle3
												{
													OFFSET -10.771950 0.000000 0.000000
													CHANNELS 3 Xrotation Yrotation Zrotation
													End Site
													{
														OFFSET 0.000000 0.000000 0.000000
													}
												}
											}
										}
										JOINT RightHandRing1
										{
											OFFSET -24.660927 0.144547 -6.225808
											CHANNELS 3 Xrotation Yrotation Zrotation
											JOINT RightHandRing2
											{
												OFFSET -9.393799 0.000000 0.000000
												CHANNELS 3 Xrotation Yrotation Zrotation
												JOINT RightHandRing3
												{
													OFFSET -9.928497 0.000000 0.000000
													CHANNELS 3 Xrotation Yrotation Zrotation
													End Site
													{
														OFFSET 0.000000 0.000000 0.000000
													}
												}
											}
										}
										JOINT RightHandPinky1
										{
											OFFSET -23.655350 0.125290 -12.815412
											CHANNELS 3 Xrotation Yrotation Zrotation
											JOINT RightHandPinky2
											{
												OFFSET -8.425102 0.000000 0.000000
												CHANNELS 3 Xrotation Yrotation Zrotation
												JOINT RightHandPinky3
												{
													OFFSET -8.147003 0.000000 0.000000
													CHANNELS 3 Xrotation Yrotation Zrotation
													End Site
													{
														OFFSET 0.000000 0.000000 0.000000
													}
												}
											}
										}
									}
								}
							}
						}
					}
				}
			}
		}
	}
	JOINT LeftUpLeg
	{
		OFFSET 11.394100 -6.187798 -0.413800
		CHANNELS 3 Xrotation Yrotation Zrotation
		JOINT LeftLeg
		{
			OFFSET 0.430247 -32.302673 3.732800
			CHANNELS 3 Xrotation Yrotation Zrotation
			JOINT LeftFoot
			{
				OFFSET -0.430247 -48.264931 -6.423300
				CHANNELS 3 Xrotation Yrotation Zrotation
				JOINT LeftToeBase
				{
					OFFSET 4.230900 -16.068199 23.438400
					CHANNELS 3 Xrotation Yrotation Zrotation
					JOINT LeftToe_End
					{
						OFFSET 4.510700 0.695400 19.974600
						CHANNELS 3 Xrotation Yrotation Zrotation
						End Site
						{
							OFFSET 0.000000 0.000000 0.000000
						}
					}
				}
			}
		}
	}
	JOINT RightUpLeg
	{
		OFFSET -11.333700 -6.187798 -0.413800
		CHANNELS 3 Xrotation Yrotation Zrotation
		JOINT RightLeg
		{
			OFFSET -0.430392 -32.302628 3.733000
			CHANNELS 3 Xrotation Yrotation Zrotation
			JOINT RightFoot
			{
				OFFSET 0.430392 -48.264973 -6.423500
				CHANNELS 3 Xrotation Yrotation Zrotation
				JOINT RightToeBase
				{
					OFFSET -4.230900 -16.068199 23.438400
					CHANNELS 3 Xrotation Yrotation Zrotation
					JOINT RightToe_End
					{
						OFFSET -4.510700 0.695400 19.974600
						CHANNELS 3 Xrotation Yrotation Zrotation
						End Site
						{
							OFFSET 0.000000 0.000000 0.000000
						}
					}
				}
			}
		}
	}
}
MOTION
Frames: 4
Frame Time: 0.016667
60.663727 79.634766 235.348969 1.135714 28.065937 -15.194372 4.409076 -2.739585 -1.252615 3.685480 -1.693003 1.426703 0.000000 0.000000 0.000000 3.657015 -1.820083 1.396208 0.856921 2.472366 0.809335 -13.888075 30.928592 5.475026 0.000000 -0.000003 0.000000 0.537710 -0.925235 -8.721430 0.000000 0.000000 0.000000 28.704785 -17.140802 -55.244349 0.000025 -63.812012 0.000038 -14.162590 -33.316252 32.504071 5.358057 -0.141369 9.666156 3.545756 27.155823 3.560553 3.579359 15.544291 0.630977 -0.000004 -0.000001 0.000002 -1.578835 0.825936 -19.703492 0.405083 2.870990 -21.069216 -0.000001 0.000001 0.000000 0.409501 7.162247 -25.647946 0.416486 2.993235 -22.185351 0.000002 0.000004 0.000000 2.386872 10.570843 -32.882361 0.471670 2.115272 -18.421985 -0.000000 -0.000002 0.000003 2.967941 13.388248 -36.938906 0.139973 1.667047 -18.441907 -0.000004 0.000001 -0.000000 0.815847 -4.239267 12.335988 0.000000 0.000000 0.000000 15.586531 20.224405 47.923298 -0.001877 92.611730 0.001890 -14.992137 28.643997 -6.764707 0.789359 -8.211543 -4.825409 0.020108 -13.361250 -9.371035 3.749501 -15.817805 -0.052395 -0.000001 -0.000002 0.000000 -1.070481 -2.247359 17.231252 0.405452 -2.871950 21.079304 -0.000000 -0.000000 -0.000000 0.439002 -7.256193 26.595143 0.417444 -2.995672 22.211557 0.000001 0.000000 0.000000 2.698250 -11.184229 32.166089 0.472418 -2.116941 18.440360 -0.000000 0.000001 0.000000 4.305376 -16.260319 34.920975 0.139793 -1.666349 18.434711 0.000000 0.000000 0.000000 -59.973760 10.859488 6.229410 106.181486 5.997649 0.107740 25.204419 3.839754 21.809125 -56.404071 -15.325659 11.042232 0.000002 -0.000000 -0.000000 -49.970023 5.059863 -1.959214 62.940364 8.247365 0.177455 -17.609949 -0.331971 16.485423 -4.331980 0.000013 -0.000003 -0.000000 0.000001 0.000000 
64.042793 79.290054 241.272888 0.526776 28.414997 -15.684180 5.212313 -0.674449 -0.777314 4.311014 -0.536959 1.522724 0.000000 0.000000 0.000000 4.300142 -0.688782 1.521625 0.463916 2.096611 0.947761 -14.996445 28.403012 5.305057 0.000001 0.000002 -0.000001 0.523714 -0.270279 -7.835302 0.000000 0.000000 0.000000 34.348564 -17.343300 -56.852142 0.000011 -59.199333 0.000012 -16.618875 -33.493065 29.916789 5.358056 -0.141362 9.666158 3.545758 27.155821 3.560559 3.579359 15.544288 0.630977 0.000001 0.000000 0.000001 -1.578835 0.825940 -19.703494 0.405080 2.870992 -21.069214 0.000003 0.000003 0.000002 0.409502 7.162251 -25.647946 0.416487 2.993240 -22.185349 0.000001 0.000000 0.000001 2.386876 10.570846 -32.882368 0.471673 2.115270 -18.421985 -0.000001 -0.000002 -0.000000 2.967939 13.388249 -36.938906 0.139971 1.667048 -18.441900 0.000002 -0.000003 -0.000001 0.730130 -2.285043 12.250229 0.000000 0.000000 0.000000 5.243289 22.564742 51.239441 0.000879 93.514893 -0.000959 -16.491832 27.969621 -4.873445 0.789360 -8.211543 -4.825406 0.020108 -13.361253 -9.371034 3.749504 -15.817801 -0.052395 0.000001 -0.000000 -0.000000 -1.070478 -2.247359 17.231252 0.405454 -2.871950 21.079302 0.000000 -0.000000 -0.000000 0.439001 -7.256194 26.595140 0.417446 -2.995671 22.211562 -0.000000 0.000001 0.000000 2.698252 -11.184232 32.166089 0.472418 -2.116942 18.440360 -0.000000 -0.000001 0.000000 4.305377 -16.260319 34.920978 0.139795 -1.666348 18.434710 0.000000 0.000000 -0.000000 -71.438547 9.571239 8.258781 107.476947 6.362622 0.077531 24.616254 3.326706 21.510760 -54.999183 -9.265945 6.613879 -0.000000 -0.000001 0.000000 -44.709196 4.598753 -1.275982 65.084490 8.593420 0.339578 -23.738546 -1.231216 14.151717 -4.695489 -0.000004 0.000007 -0.000001 0.000002 0.000000 
67.944641 79.015800 247.211029 -0.014860 28.444533 -16.128822 5.600216 1.178510 0.024410 4.651098 0.654904 1.633864 0.000000 0.000000 0.000000 4.657234 0.491976 1.673782 0.396496 1.761067 0.948539 -15.762634 26.254660 5.119159 -0.000000 0.000001 0.000000 0.472290 0.823555 -6.563497 0.000000 0.000000 0.000000 41.287039 -17.715620 -58.148693 0.000012 -58.979831 0.000010 -18.820694 -33.533476 26.792950 5.358061 -0.141370 9.666154 3.545757 27.155821 3.560560 3.579364 15.544290 0.630980 -0.000001 0.000000 0.000000 -1.578833 0.825932 -19.703492 0.405083 2.870988 -21.069219 -0.000000 -0.000000 0.000002 0.409504 7.162239 -25.647955 0.416487 2.993241 -22.185353 0.000002 -0.000001 0.000002 2.386875 10.570836 -32.882365 0.471670 2.115271 -18.421988 0.000004 -0.000001 -0.000000 2.967941 13.388242 -36.938910 0.139973 1.667042 -18.441905 0.000001 0.000001 -0.000003 0.625965 0.265411 11.021707 0.000000 0.000000 0.000000 -6.297822 23.802335 54.826905 0.000001 96.646992 -0.000009 -19.103262 24.520616 -3.410968 0.789358 -8.211542 -4.825406 0.020108 -13.361253 -9.371026 3.749502 -15.817801 -0.052397 -0.000001 0.000002 0.000003 -1.070481 -2.247356 17.231254 0.405451 -2.871952 21.079306 -0.000001 -0.000000 -0.000000 0.438998 -7.256192 26.595143 0.417446 -2.995672 22.211563 -0.000002 0.000000 0.000001 2.698252 -11.184227 32.166093 0.472421 -2.116941 18.440362 -0.000000 0.000000 0.000000 4.305375 -16.260315 34.920975 0.139793 -1.666348 18.434710 -0.000000 -0.000001 -0.000001 -80.453604 8.462003 9.004219 105.603802 7.346703 0.116079 23.648265 3.082158 21.167231 -48.683932 -5.040869 4.213678 -0.000000 -0.000000 0.000000 -38.137294 4.032785 -1.135535 65.674359 8.586218 0.513259 -30.200481 -1.352397 11.422306 -5.746962 0.000001 0.000002 0.000000 -0.000002 -0.000000 
67.944641 79.015800 247.211029 -0.014860 28.444533 -16.128822 5.600216 1.178510 0.024410 4.651098 0.654904 1.633864 0.000000 0.000000 0.000000 4.657234 0.491976 1.673782 0.396496 1.761067 0.948539 -15.762634 26.254660 5.119159 -0.000000 0.000001 0.000000 0.472290 0.823555 -6.563497 0.000000 0.000000 0.000000 41.287039 -17.715620 -58.148693 0.000012 -58.979831 0.000010 -18.820694 -33.533476 26.792950 5.358061 -0.141370 9.666154 3.545757 27.155821 3.560560 3.579364 15.544290 0.630980 -0.000001 0.000000 0.000000 -1.578833 0.825932 -19.703492 0.405083 2.870988 -21.069219 -0.000000 -0.000000 0.000002 0.409504 7.162239 -25.647955 0.416487 2.993241 -22.185353 0.000002 -0.000001 0.000002 2.386875 10.570836 -32.882365 0.471670 2.115271 -18.421988 0.000004 -0.000001 -0.000000 2.967941 13.388242 -36.938910 0.139973 1.667042 -18.441905 0.000001 0.000001 -0.000003 0.625965 0.265411 11.021707 0.000000 0.000000 0.000000 -6.297822 23.802335 54.826905 0.000001 96.646992 -0.000009 -19.103262 24.520616 -3.410968 0.789358 -8.211542 -4.825406 0.020108 -13.361253 -9.371026 3.749502 -15.817801 -0.052397 -0.000001 0.000002 0.000003 -1.070481 -2.247356 17.231254 0.405451 -2.871952 21.079306 -0.000001 -0.000000 -0.000000 0.438998 -7.256192 26.595143 0.417446 -2.995672 22.211563 -0.000002 0.000000 0.000001 2.698252 -11.184227 32.166093 0.472421 -2.116941 18.440362 -0.000000 0.000000 0.000000 4.305375 -16.260315 34.920975 0.139793 -1.666348 18.434710 -0.000000 -0.000001 -0.000001 -80.453604 8.462003 9.004219 105.603802 7.346703 0.116079 23.648265 3.082158 21.167231 -48.683932 -5.040869 4.213678 -0.000000 -0.000000 0.000000 -38.137294 4.032785 -1.135535 65.674359 8.586218 0.513259 -30.200481 -1.352397 11.422306 -5.746962 0.000001 0.000002 0.000000 -0.000002 -0.000000 
